<?xml version="1.0" encoding="UTF-8"?>
<svg version="1.1" xmlns="http://www.w3.org/2000/svg" width="2000" height="1500">
<path d="M0 0 C660 0 1320 0 2000 0 C2000 495 2000 990 2000 1500 C1340 1500 680 1500 0 1500 C0 1005 0 510 0 0 Z " fill="#ECE0D0" transform="translate(0,0)"/>
<path d="M0 0 C0.90644257 -0.00340393 1.81288513 -0.00680786 2.74679565 -0.01031494 C14.9706646 -0.03658291 26.88474974 0.695958 39 2.3125 C40.42481689 2.49292847 40.42481689 2.49292847 41.87841797 2.67700195 C69.42250114 6.29823376 96.03443227 15.30005056 121 27.3125 C121.7002832 27.64217773 122.40056641 27.97185547 123.12207031 28.31152344 C159.04703564 45.23457023 192.92086147 71.61559765 217 103.3125 C217.98521381 104.54828447 218.97235145 105.78253655 219.9609375 107.015625 C244.36507819 137.76991651 261.22447818 173.36538541 271 211.3125 C271.20705566 212.09850586 271.41411133 212.88451172 271.62744141 213.69433594 C272.96834383 218.86590401 274.05727962 224.05443344 275 229.3125 C275.22429687 230.51398682 275.22429687 230.51398682 275.453125 231.73974609 C278.21716707 247.31428918 278.29021686 262.91916519 278.3125 278.6875 C278.31608521 279.71176086 278.31967041 280.73602173 278.32336426 281.7913208 C278.35427646 298.22970677 277.72894731 314.66644693 274.375 330.8125 C274.1289502 332.01144897 274.1289502 332.01144897 273.87792969 333.23461914 C263.21758779 382.59237551 240.73872481 427.76957315 207 465.3125 C206.48663086 465.88758301 205.97326172 466.46266602 205.44433594 467.05517578 C200.21472643 472.89517625 194.97788761 478.64065851 188.9453125 483.671875 C187.59464721 484.81099031 186.27853877 485.9918526 184.9921875 487.203125 C172.68166667 498.78445122 158.6628892 508.93370617 144 517.3125 C142.79660713 518.02037816 141.5934951 518.72873388 140.390625 519.4375 C107.15654437 538.79687078 72.07366525 550.17934808 34 555.3125 C33.20319824 555.42964355 32.40639648 555.54678711 31.58544922 555.66748047 C-34.95424644 565.40464402 -107.64924467 545.35179085 -161.64453125 505.98046875 C-165.83596122 502.84755088 -169.93817303 499.61122136 -174 496.3125 C-174.58185059 495.84102539 -175.16370117 495.36955078 -175.76318359 494.88378906 C-187.2208708 485.5331483 -198.54024751 475.70905526 -208 464.3125 C-208.86625 463.33410156 -209.7325 462.35570312 -210.625 461.34765625 C-245.26328522 422.17505126 -267.12007678 373.11299119 -275.75 321.6875 C-275.86537109 321.00300781 -275.98074219 320.31851562 -276.09960938 319.61328125 C-277.57695547 310.31943127 -278.15784216 301.02006021 -278.203125 291.6171875 C-278.21371445 290.14345673 -278.21371445 290.14345673 -278.22451782 288.63995361 C-278.45500817 247.15251071 -278.45500817 247.15251071 -275 229.3125 C-274.80132324 228.27689941 -274.60264648 227.24129883 -274.39794922 226.17431641 C-265.41789297 180.99151656 -245.9101947 139.13052004 -217 103.3125 C-216.5265918 102.72194824 -216.05318359 102.13139648 -215.56542969 101.52294922 C-203.65944568 86.79359409 -190.10377911 72.7658189 -175 61.3125 C-174.00226563 60.52101563 -173.00453125 59.72953125 -171.9765625 58.9140625 C-122.73871777 19.97585568 -62.49798507 0.05522511 0 0 Z " fill="#ECE0D0" transform="translate(1000,298.6875)"/>
<path d="M0 0 C0.90644257 -0.00340393 1.81288513 -0.00680786 2.74679565 -0.01031494 C14.9706646 -0.03658291 26.88474974 0.695958 39 2.3125 C40.42481689 2.49292847 40.42481689 2.49292847 41.87841797 2.67700195 C69.42250114 6.29823376 96.03443227 15.30005056 121 27.3125 C121.7002832 27.64217773 122.40056641 27.97185547 123.12207031 28.31152344 C159.04703564 45.23457023 192.92086147 71.61559765 217 103.3125 C217.98521381 104.54828447 218.97235145 105.78253655 219.9609375 107.015625 C244.36507819 137.76991651 261.22447818 173.36538541 271 211.3125 C271.20705566 212.09850586 271.41411133 212.88451172 271.62744141 213.69433594 C272.96834383 218.86590401 274.05727962 224.05443344 275 229.3125 C275.22429687 230.51398682 275.22429687 230.51398682 275.453125 231.73974609 C278.21716707 247.31428918 278.29021686 262.91916519 278.3125 278.6875 C278.31608521 279.71176086 278.31967041 280.73602173 278.32336426 281.7913208 C278.35427646 298.22970677 277.72894731 314.66644693 274.375 330.8125 C274.1289502 332.01144897 274.1289502 332.01144897 273.87792969 333.23461914 C263.21758779 382.59237551 240.73872481 427.76957315 207 465.3125 C206.48663086 465.88758301 205.97326172 466.46266602 205.44433594 467.05517578 C200.21472643 472.89517625 194.97788761 478.64065851 188.9453125 483.671875 C187.59464721 484.81099031 186.27853877 485.9918526 184.9921875 487.203125 C172.68166667 498.78445122 158.6628892 508.93370617 144 517.3125 C142.79660713 518.02037816 141.5934951 518.72873388 140.390625 519.4375 C107.15654437 538.79687078 72.07366525 550.17934808 34 555.3125 C33.20319824 555.42964355 32.40639648 555.54678711 31.58544922 555.66748047 C-34.95424644 565.40464402 -107.64924467 545.35179085 -161.64453125 505.98046875 C-165.83596122 502.84755088 -169.93817303 499.61122136 -174 496.3125 C-174.58185059 495.84102539 -175.16370117 495.36955078 -175.76318359 494.88378906 C-187.2208708 485.5331483 -198.54024751 475.70905526 -208 464.3125 C-208.86625 463.33410156 -209.7325 462.35570312 -210.625 461.34765625 C-245.26328522 422.17505126 -267.12007678 373.11299119 -275.75 321.6875 C-275.86537109 321.00300781 -275.98074219 320.31851562 -276.09960938 319.61328125 C-277.57695547 310.31943127 -278.15784216 301.02006021 -278.203125 291.6171875 C-278.21371445 290.14345673 -278.21371445 290.14345673 -278.22451782 288.63995361 C-278.45500817 247.15251071 -278.45500817 247.15251071 -275 229.3125 C-274.80132324 228.27689941 -274.60264648 227.24129883 -274.39794922 226.17431641 C-265.41789297 180.99151656 -245.9101947 139.13052004 -217 103.3125 C-216.5265918 102.72194824 -216.05318359 102.13139648 -215.56542969 101.52294922 C-203.65944568 86.79359409 -190.10377911 72.7658189 -175 61.3125 C-174.00226563 60.52101563 -173.00453125 59.72953125 -171.9765625 58.9140625 C-122.73871777 19.97585568 -62.49798507 0.05522511 0 0 Z M-67 29.3125 C-68.12148438 29.58634521 -68.12148438 29.58634521 -69.265625 29.86572266 C-120.88123743 42.80546994 -172.37770852 77.6007082 -203.75390625 120.61767578 C-205.04941202 122.37970577 -206.38024064 124.11030385 -207.71875 125.83984375 C-240.60452163 168.80341994 -257.52940082 223.01134819 -257.3125 276.8125 C-257.31100952 277.73015137 -257.30951904 278.64780273 -257.3079834 279.59326172 C-257.24676828 300.61837156 -255.31385155 320.91648304 -250 341.3125 C-249.78037598 342.15917236 -249.56075195 343.00584473 -249.33447266 343.87817383 C-238.75453881 383.699184 -219.41622306 420.61883313 -191.2890625 450.8359375 C-189.35416784 452.92932183 -187.51423094 455.06332207 -185.6875 457.25 C-176.70766198 467.53065567 -165.90322432 476.1712368 -155 484.3125 C-154.3611084 484.79187012 -153.7222168 485.27124023 -153.06396484 485.76513672 C-119.36820089 510.84470778 -81.28721503 526.40307573 -40 533.3125 C-39.04480469 533.49272705 -38.08960938 533.6729541 -37.10546875 533.85864258 C-26.36696833 535.68780847 -15.65694523 535.65001117 -4.79003906 535.62817383 C-1.53415806 535.62503295 1.72079439 535.64847704 4.9765625 535.67382812 C30.86811255 535.75180217 56.52581415 531.89701869 81 523.3125 C81.78036621 523.03954102 82.56073242 522.76658203 83.36474609 522.48535156 C148.71499834 499.29696565 202.88240184 452.05664278 233 389.3125 C236.64519668 381.10106936 239.85221744 372.72438814 243 364.3125 C243.52922003 362.93591786 244.05906327 361.55957496 244.58984375 360.18359375 C253.00433436 337.70232551 257.01890645 312.60302978 257.23828125 288.625 C257.25297203 287.28662834 257.25297203 287.28662834 257.26795959 285.92121887 C257.43871422 266.33543992 257.20706594 247.5260485 253 228.3125 C252.78569336 227.27722168 252.57138672 226.24194336 252.35058594 225.17529297 C249.18978446 210.04991471 244.74207999 195.65038716 239 181.3125 C238.71543945 180.59304199 238.43087891 179.87358398 238.13769531 179.13232422 C229.1541769 156.68426118 216.17511441 136.06355487 201 117.3125 C200.56526367 116.77334961 200.13052734 116.23419922 199.68261719 115.67871094 C187.99625607 101.31440195 174.8845262 87.38753005 160 76.3125 C159.34032227 75.81943359 158.68064453 75.32636719 158.00097656 74.81835938 C131.32065937 54.9583087 102.19888488 39.19349962 70 30.3125 C68.92105469 29.98894531 67.84210938 29.66539062 66.73046875 29.33203125 C58.85194023 27.06489129 50.95307668 25.49253116 42.875 24.125 C41.89813232 23.95806641 40.92126465 23.79113281 39.91479492 23.61914062 C26.54154946 21.44742655 13.20450131 21.07237975 -0.3125 21.0625 C-1.1487088 21.06182526 -1.9849176 21.06115051 -2.84646606 21.06045532 C-24.82198436 21.08848565 -45.66763836 24.04019709 -67 29.3125 Z " fill="#6B714D" transform="translate(1000,298.6875)"/>
<path d="M0 0 C4.56216465 -0.14532035 9.12373362 -0.23408477 13.6875 -0.3125 C15.62786133 -0.3753418 15.62786133 -0.3753418 17.60742188 -0.43945312 C19.47817383 -0.46362305 19.47817383 -0.46362305 21.38671875 -0.48828125 C22.53358154 -0.51446533 23.68044434 -0.54064941 24.86206055 -0.56762695 C28.94876253 0.17162319 30.38277774 1.86170181 33 5 C38.16115137 13.54320278 37.03414194 26.69449404 34.8125 36 C34.23358142 38.00745377 33.62793055 40.0073333 33 42 C32.6596875 43.12792969 32.319375 44.25585938 31.96875 45.41796875 C30.67890491 49.62303803 29.34312374 53.81172175 28 58 C27.29931697 60.19395862 26.59880867 62.38797305 25.8984375 64.58203125 C23.93677472 70.72279439 21.96992451 76.86188263 20 83 C20.51046875 81.84886719 21.0209375 80.69773437 21.546875 79.51171875 C29.01642051 63.0199694 37.93941662 47.57916048 50 34 C50.72703125 33.15308594 51.4540625 32.30617188 52.203125 31.43359375 C64.81102392 16.99622698 82.46341597 1.40077169 102.54296875 -0.203125 C111.11012719 -0.3549801 118.47712676 0.65640341 125.375 6.0625 C131.4890969 12.02807632 133.22073942 18.61121981 133.75 27 C133.75 37.92856552 129.60972194 48.29486869 126.1640625 58.52197266 C124.58379408 63.24355484 123.08133302 67.98866616 121.57617188 72.73461914 C120.06531473 77.4944361 118.53362774 82.24747995 117 87 C117.22550537 86.47792969 117.45101074 85.95585938 117.68334961 85.41796875 C124.69200401 69.28517294 132.10324593 53.90714138 143 40 C143.66257812 39.13375 144.32515625 38.2675 145.0078125 37.375 C158.3025277 20.49905155 174.40400894 4.9433598 196 0 C205.44239261 -1.10323488 215.16182528 -0.30982018 222.875 5.6875 C228.28454415 10.8036019 230.80100403 17.37215031 231.203125 24.703125 C231.51517957 42.4604212 228.8032048 59.72571647 225.71484375 77.16796875 C222.94943075 93.00338504 220.49529001 108.88122492 218.0793457 124.77307129 C217.41107755 129.16486621 216.73905418 133.55608797 216.06744766 137.94737339 C215.54718614 141.34936074 215.02768039 144.75145677 214.50970459 148.15379333 C214.32571106 149.36108597 214.14171753 150.5683786 213.95214844 151.81225586 C213.79180115 152.86618027 213.63145386 153.92010468 213.46624756 155.00596619 C212.99878816 158.00778191 212.50495628 161.00428406 212 164 C207.58367823 164.14509751 203.16796807 164.23400818 198.75 164.3125 C196.86861328 164.3753418 196.86861328 164.3753418 194.94921875 164.43945312 C193.14130859 164.46362305 193.14130859 164.46362305 191.296875 164.48828125 C189.63156738 164.52755737 189.63156738 164.52755737 187.93261719 164.56762695 C185 164 185 164 182.66894531 161.78198242 C175.94373973 150.5716668 180.23820358 131.60430287 182.0625 119.1875 C182.28230409 117.62185829 182.50127337 116.05609919 182.71948242 114.49023438 C184.01142699 105.32817558 185.43316325 96.1877992 186.890625 87.05078125 C187.04998032 86.04685837 187.20933563 85.04293549 187.3735199 84.0085907 C188.15497057 79.09183053 188.94786939 74.17749748 189.76391602 69.26635742 C192.51850124 55.16735555 192.51850124 55.16735555 192 41 C190.29276785 38.60117481 190.29276785 38.60117481 188 37 C182.28338478 36.93321711 178.7696737 39.10329833 174.5 42.625 C173.97019531 43.03878906 173.44039062 43.45257812 172.89453125 43.87890625 C142.89128258 67.77979926 123.99943044 109.02388616 119.58984375 146.484375 C118.6189581 154.21375593 118.6189581 154.21375593 115.6875 157.9375 C106.82843685 163.77791941 95.54226638 166.85018277 85 166 C82.78125 164.49487305 82.78125 164.49487305 81 162 C80.64476901 159.10641026 80.52664369 156.64978389 80.625 153.76953125 C80.64006592 152.96989456 80.65513184 152.17025787 80.6706543 151.34638977 C80.88841661 143.38366892 81.82219525 135.55875701 83 127.6875 C83.21731271 126.17361129 83.43442903 124.65969438 83.65136719 123.14575195 C86.26011039 105.27186028 89.5152766 87.49562001 92.79473877 69.73461914 C94.49862485 60.88744976 94.49862485 60.88744976 95.1328125 51.921875 C95.13410156 51.23609375 95.13539062 50.5503125 95.13671875 49.84375 C95.13285156 49.1528125 95.12898438 48.461875 95.125 47.75 C95.12886719 47.04359375 95.13273437 46.3371875 95.13671875 45.609375 C95.13077317 42.47010696 94.99991484 39.99974451 94 37 C88.00375783 35.94183962 84.86493485 37.32738556 79.8125 40.6875 C50.81386869 61.63704947 29.53170141 99.09358248 23.45507812 134.14306641 C22.4686551 140.5822479 22.4686551 140.5822479 21.64355469 147.04345703 C20.55656054 155.11229817 20.55656054 155.11229817 17.25 158.01953125 C14.20480477 159.8751971 11.3076622 161.42348964 8 162.75 C6.515 163.36101562 6.515 163.36101562 5 163.984375 C-0.63986301 165.89370362 -6.09649336 166.47608925 -12 166 C-14.85028496 163.90878563 -15.87453865 162.70831327 -16.49609375 159.19921875 C-15.98554009 128.60003612 -11.11276013 97.82365459 -7.515625 67.4609375 C-6.98929448 63.01565914 -6.46331375 58.57033951 -5.9375 54.125 C-5.80763702 53.02807831 -5.67777405 51.93115662 -5.54397583 50.80099487 C-3.54331652 33.88154091 -1.64906983 16.95771133 0 0 Z " fill="#6B704D" transform="translate(1364,1034)"/>
<path d="M0 0 C0.2475 0.9075 0.495 1.815 0.75 2.75 C1.16401972 4.1674425 1.58114344 5.58397926 2 7 C2.4021875 8.41345703 2.4021875 8.41345703 2.8125 9.85546875 C5.22741541 17.79450317 8.15751295 24.65637256 15.1875 29.5 C20.95543883 32.30807548 26.94860679 31.96062379 32.953125 30.0703125 C39.96582833 26.9678338 44.82225978 22.72054452 49.55249023 16.78808594 C50.91796875 15.21875 50.91796875 15.21875 54 13 C60.31828266 13.22504832 65.83067271 16.2008167 71.19140625 19.2734375 C72.72858238 20.10774881 74.26703707 20.93970794 75.80664062 21.76953125 C78.18727747 23.06449978 80.55639923 24.37149623 82.90649414 25.72119141 C93.58689977 32.0130041 93.58689977 32.0130041 105.5827179 32.28492737 C108.81362358 31.37401259 111.87849626 30.24010761 115 29 C116.494198 28.53007305 117.99088361 28.06779905 119.4921875 27.62109375 C120.60851563 27.23050781 121.72484375 26.83992188 122.875 26.4375 C124.71384766 25.81101562 124.71384766 25.81101562 126.58984375 25.171875 C127.71519531 24.78515625 128.84054687 24.3984375 130 24 C144.04898592 19.19627618 144.04898592 19.19627618 150.875 22.3125 C153.3438546 24.27306101 154.82408031 25.90766148 155.3359375 29.0859375 C155.34882812 29.84132813 155.36171875 30.59671875 155.375 31.375 C155.40335938 32.12523437 155.43171875 32.87546875 155.4609375 33.6484375 C154.79058312 37.06838101 153.50345694 38.58424378 151 41 C148.39084999 42.05538652 146.07620424 42.82354537 143.375 43.5 C142.63080811 43.70230225 141.88661621 43.90460449 141.11987305 44.11303711 C139.54688944 44.53955039 137.97186432 44.95859638 136.39501953 45.37060547 C133.28173344 46.18875547 130.1835336 47.05702078 127.08447266 47.92724609 C124.82578643 48.55878505 122.56345031 49.17587719 120.30078125 49.79296875 C117.54792836 50.55133888 114.82265708 51.36089215 112.10546875 52.23828125 C110.91566406 52.61339844 109.72585938 52.98851562 108.5 53.375 C107.4790625 53.71273437 106.458125 54.05046875 105.40625 54.3984375 C96.19451544 56.02528053 86.95986691 52.95353122 78.06811523 50.67138672 C75.93996303 50.12563163 73.8091925 49.59127451 71.67773438 49.05859375 C64.68887269 47.29740427 57.79865933 45.41022705 51 43 C51.433125 44.8871875 51.433125 44.8871875 51.875 46.8125 C52.03742188 47.52019531 52.19984375 48.22789062 52.3671875 48.95703125 C52.98007723 51.27742974 52.98007723 51.27742974 55 54 C54.55011719 54.6084375 54.10023438 55.216875 53.63671875 55.84375 C49.18670376 61.90789869 44.87390522 68.04928383 40.62719727 74.2565918 C37.16834975 79.30922772 33.68148654 84.34155573 30.17895508 89.36401367 C28.80607865 91.33480039 27.43613641 93.30763425 26.0690918 95.2824707 C22.84692924 99.93551141 19.60303663 104.56441676 16.26171875 109.1328125 C9.87896345 117.94819043 5.45297274 125.66535936 2.73730469 136.32470703 C1.22439717 141.81425691 -0.61568041 147.2099017 -2.3866272 152.62072754 C-5.02630409 160.69267759 -7.63733581 168.77305577 -10.12109375 176.89453125 C-10.44859619 177.95099854 -10.77609863 179.00746582 -11.11352539 180.09594727 C-11.64700668 181.84360906 -12.16347807 183.59678449 -12.64624023 185.35913086 C-14.53506869 191.85349511 -17.94332119 197.28618562 -21.52078247 202.98922729 C-23.44033701 206.05012711 -25.3293231 209.12987 -27.22265625 212.20703125 C-27.6153923 212.84355118 -28.00812836 213.48007111 -28.4127655 214.13587952 C-33.10365773 221.75624002 -37.60351654 229.48753598 -42.10064697 237.2232666 C-44.38747003 241.15656368 -46.69104411 245.07966318 -49 249 C-49.34343445 249.59468079 -49.6868689 250.18936157 -50.04071045 250.80206299 C-51.07721063 252.59487476 -52.12884588 254.37803384 -53.18359375 256.16015625 C-53.7964624 257.20953369 -54.40933105 258.25891113 -55.04077148 259.34008789 C-57.63560191 262.86291375 -60.19513689 264.60527558 -64.46484375 265.5390625 C-68.06525844 265.6641954 -70.85198791 265.70646898 -73.98046875 263.78125 C-77.07838123 260.66126213 -78.36478577 257.80125226 -78.47265625 253.41015625 C-78.30606479 247.17780988 -75.82888916 242.65205353 -72.8125 237.3125 C-72.27439697 236.32209717 -71.73629395 235.33169434 -71.18188477 234.3112793 C-69.47844758 231.19360282 -67.74377366 228.09527144 -66 225 C-65.44989258 224.01644531 -64.89978516 223.03289062 -64.33300781 222.01953125 C-62.7066785 219.11405562 -61.07268423 216.21299951 -59.4375 213.3125 C-58.8997998 212.3519873 -58.36209961 211.39147461 -57.80810547 210.40185547 C-55.27633993 205.90509203 -52.69747089 201.48508011 -49.875 197.1640625 C-41.53975687 184.02112405 -39.7225022 171.29961162 -38.35742188 155.94824219 C-37.99177007 151.90908848 -37.56283414 147.88154086 -37.109375 143.8515625 C-36.37013631 137.23784038 -35.66998056 130.62107515 -35 124 C-36.19077148 124.44915771 -37.38154297 124.89831543 -38.60839844 125.36108398 C-43.02813408 127.02753752 -47.44895854 128.69108561 -51.87011719 130.35375977 C-53.78317595 131.07367057 -55.69593885 131.79436812 -57.60839844 132.51586914 C-60.35794845 133.55301768 -63.10855134 134.58732883 -65.859375 135.62109375 C-66.71368103 135.94403915 -67.56798706 136.26698456 -68.44818115 136.59971619 C-69.24870911 136.89995193 -70.04923706 137.20018768 -70.87402344 137.50952148 C-71.57573669 137.77377426 -72.27744995 138.03802704 -73.00042725 138.31028748 C-74.98255301 138.99398201 -76.95913067 139.52338841 -79 140 C-79.49306641 139.12988281 -79.49306641 139.12988281 -79.99609375 138.2421875 C-85.16869814 129.74734126 -91.84470237 125.5062842 -101 122 C-101 121.34 -101 120.68 -101 120 C-100.26608032 119.65746689 -99.53216064 119.31493378 -98.77600098 118.96202087 C-91.81004227 115.70089441 -84.8672624 112.39624486 -77.94541168 109.04263973 C-74.38720125 107.32056988 -70.82286538 105.61554057 -67.23828125 103.94897461 C-63.7687892 102.33514535 -60.32362448 100.67721877 -56.88993835 98.98861885 C-55.58675037 98.35710727 -54.2759931 97.74093989 -52.95759583 97.14182854 C-41.90587872 92.09926608 -37.66015991 85.79757708 -33 75 C-32.05065967 73.0418256 -31.09525815 71.08655414 -30.12890625 69.13671875 C-29.27034305 67.32177311 -28.41487184 65.50536157 -27.5625 63.6875 C-22.8447306 53.72093166 -17.97536987 43.84017596 -13 34 C-13.64582031 34.23074219 -14.29164063 34.46148437 -14.95703125 34.69921875 C-21.33186858 36.9055578 -27.72032576 38.7559231 -34.25 40.4375 C-35.90638148 40.87580552 -37.56263163 41.31460763 -39.21875 41.75390625 C-42.12619832 42.52301429 -45.03543369 43.23981372 -47.96875 43.90234375 C-60.26060771 47.06419558 -69.82700113 54.0624811 -80.22607422 61.13476562 C-84.25443567 63.84350366 -88.34579631 66.4269221 -92.5 68.9375 C-93.16314209 69.35604248 -93.82628418 69.77458496 -94.50952148 70.20581055 C-98.83601693 72.79257478 -101.99074924 73.52472054 -107 73 C-110.5386994 71.34860695 -111.81070153 70.28394771 -114 67 C-114.87080565 60.46895763 -114.87080565 60.46895763 -112.96606445 57.25585938 C-108.81182974 52.37712383 -104.24194203 49.37317057 -98.6875 46.25 C-96.9034642 45.21479235 -95.12093782 44.17697954 -93.33984375 43.13671875 C-92.44765137 42.61770996 -91.55545898 42.09870117 -90.63623047 41.56396484 C-85.24917362 38.36805022 -80.03513296 34.90450449 -74.796875 31.47265625 C-74.20670593 31.08847534 -73.61653687 30.70429443 -73.00848389 30.30847168 C-71.73011376 29.47564891 -70.45464703 28.63833971 -69.18312073 27.79510498 C-64.41950937 24.70923648 -59.62181188 22.3869341 -54.35546875 20.29296875 C-53.54620438 19.96388016 -52.73694 19.63479156 -51.90315247 19.29573059 C-49.33405738 18.25259911 -46.7610153 17.21967151 -44.1875 16.1875 C-41.66533727 15.16836817 -39.14405743 14.14708411 -36.62307739 13.12503052 C-34.94718623 12.44634102 -33.2704895 11.76963729 -31.59298706 11.09494019 C-27.26482361 9.34918235 -22.95973084 7.5630871 -18.67822266 5.70556641 C-17.81763748 5.33418045 -16.95705231 4.96279449 -16.07038879 4.58015442 C-14.43294729 3.87056834 -12.79868372 3.15358699 -11.16825867 2.42802429 C-7.31148854 0.76014136 -4.29673853 -0.47658521 0 0 Z " fill="#422F28" transform="translate(994,461)"/>
<path d="M0 0 C4.22893468 -0.11633933 8.45745674 -0.18729952 12.6875 -0.25 C13.88568359 -0.28351562 15.08386719 -0.31703125 16.31835938 -0.3515625 C18.05375977 -0.37089844 18.05375977 -0.37089844 19.82421875 -0.390625 C20.88729248 -0.41157227 21.95036621 -0.43251953 23.0456543 -0.45410156 C26.7260661 0.11160094 28.34496885 1.44498614 31 4 C32.328125 6.21875 32.328125 6.21875 33.25 8.5 C33.56453125 9.2528125 33.8790625 10.005625 34.203125 10.78125 C39.5459625 25.65738579 36.27168651 44.32170461 32.64599609 59.30175781 C31.6849067 63.31610398 30.81294941 67.34925352 29.92871094 71.38110352 C29.17097373 74.82511397 28.40121218 78.26626038 27.62890625 81.70703125 C26.08097984 88.61798487 24.56544447 95.535764 23.05706787 102.45544434 C19.09111053 120.64876242 15.05028118 138.82529527 11 157 C11.45673096 155.87142578 11.91346191 154.74285156 12.3840332 153.58007812 C18.82591561 137.74151143 18.82591561 137.74151143 22.1875 131.5 C22.55641357 130.81188232 22.92532715 130.12376465 23.30541992 129.41479492 C37.85150798 103.02476189 59.38503299 77.69983717 88.921875 68.39453125 C97.74033537 66.72034986 107.30765531 67.09613026 115 72 C120.32058626 76.64543611 124.44589451 82.26842506 125.28393555 89.42456055 C125.40614388 92.26922659 125.41471541 95.09045934 125.375 97.9375 C125.36194824 99.516521 125.36194824 99.516521 125.34863281 101.12744141 C125.14140539 112.54703143 123.69869195 123.72061497 122 135 C121.75926758 136.63799561 121.75926758 136.63799561 121.51367188 138.30908203 C120.115445 147.80468746 118.67508664 157.28941818 116.97494507 166.73623657 C115.07610616 177.29508457 113.43879503 187.8886431 111.83789062 198.49633789 C111.37089 201.5897244 110.90051728 204.68258485 110.4296875 207.77539062 C110.1274089 209.76819956 109.82531868 211.76103707 109.5234375 213.75390625 C109.38489349 214.66547989 109.24634949 215.57705353 109.10360718 216.51625061 C108.32715742 221.67016301 107.62347614 226.82529844 107 232 C102.56271849 232.11586755 98.12582409 232.18714058 93.6875 232.25 C92.42486328 232.28351563 91.16222656 232.31703125 89.86132812 232.3515625 C88.65283203 232.36445312 87.44433594 232.37734375 86.19921875 232.390625 C85.08377686 232.41157227 83.96833496 232.43251953 82.8190918 232.45410156 C80 232 80 232 78.18505859 230.17431641 C65.7896319 207.4314919 79.26041617 164.43648855 83.984375 140.484375 C85.51226641 132.52649336 86.19573826 124.72356449 86.25 116.625 C86.270625 115.83222656 86.29125 115.03945312 86.3125 114.22265625 C86.4594139 109.96681214 86.4594139 109.96681214 84.67089844 106.26318359 C82.94131836 104.70617231 82.94131836 104.70617231 79.9375 104.875 C64.8770543 107.95626029 51.36105306 126.90309912 43.30859375 138.96386719 C27.61623387 163.38071074 17.45477753 189.99744718 14.8203125 218.9765625 C13.5887678 223.51568438 10.88392587 225.85542617 6.9296875 228.2578125 C-1.22731956 231.70050369 -10.04166777 235.23563203 -19 234 C-22.10209622 231.53859376 -23.79239688 230.04631621 -24.57397461 226.10717773 C-24.53796143 224.99802002 -24.50194824 223.8888623 -24.46484375 222.74609375 C-24.44598618 222.10441757 -24.4271286 221.46274139 -24.40769958 220.80162048 C-23.98559269 210.19126599 -22.70181627 199.61318084 -21.5625 189.0625 C-21.29871968 186.56839664 -21.03530267 184.07425483 -20.7722168 181.58007812 C-17.26265642 148.51525057 -13.50350825 115.4761563 -9.73347759 82.44017696 C-9.19034371 77.6788459 -8.6523783 72.91696074 -8.11669922 68.15478516 C-7.85263253 65.82453368 -7.58847886 63.49429205 -7.32421875 61.1640625 C-7.21024246 60.1419165 -7.09626617 59.11977051 -6.97883606 58.06665039 C-6.33890594 52.45688537 -5.52243665 46.92806967 -4.5 41.375 C-2.04861529 27.72930337 -1.18559926 13.80276439 0 0 Z " fill="#6B714D" transform="translate(959,966)"/>
<path d="M0 0 C5.19321337 5.21873284 5.97919489 9.30169369 6.08984375 16.53515625 C6.0279198 23.85222381 4.91536562 29.27213438 -0.41015625 34.59765625 C-6.517249 35.17121459 -10.48130725 34.08163199 -15.84765625 31.09765625 C-17.23862602 30.36536621 -18.63058971 29.63496162 -20.0234375 28.90625 C-20.73838379 28.52710449 -21.45333008 28.14795898 -22.18994141 27.75732422 C-25.92992411 25.80384744 -29.72629861 23.97473189 -33.53515625 22.16015625 C-34.23310303 21.81855469 -34.9310498 21.47695313 -35.65014648 21.125 C-47.48676735 15.48810469 -65.71191716 15.27630565 -78.16015625 19.16015625 C-80.84582238 20.25305473 -80.84582238 20.25305473 -83.41015625 21.59765625 C-84.3846875 22.07203125 -85.35921875 22.54640625 -86.36328125 23.03515625 C-106.45932015 33.75304366 -119.59116372 53.71556061 -126.64453125 75.00390625 C-130.81650595 89.13753482 -132.79246207 103.04017302 -132.72265625 117.78515625 C-132.7170166 119.04602051 -132.71137695 120.30688477 -132.70556641 121.60595703 C-132.40102979 145.21809783 -127.42484043 166.57605319 -110.8359375 184.3359375 C-103.01375533 191.62908319 -93.07138357 196.00244816 -82.41015625 196.59765625 C-81.36730469 196.66210938 -80.32445312 196.7265625 -79.25 196.79296875 C-59.43503831 197.45127313 -44.85649469 187.96685951 -30.59375 175.38671875 C-24.12294049 169.68628922 -19.4889829 165.88149371 -10.57421875 166.09375 C-7.89207394 166.71829274 -6.97452837 167.33201387 -5.41015625 169.59765625 C-3.57613616 178.68245343 -6.52195122 186.05645106 -11.41015625 193.59765625 C-23.4034974 210.05006014 -45.0826651 219.42290751 -64.72265625 222.91015625 C-91.93922596 226.16869652 -120.89150589 224.20987396 -143.28515625 206.97265625 C-144.66575237 205.85453088 -146.04069876 204.72939659 -147.41015625 203.59765625 C-148.2196875 202.98921875 -149.02921875 202.38078125 -149.86328125 201.75390625 C-166.89132916 187.33752213 -174.90800123 163.00990193 -177.17871094 141.45019531 C-178.64047283 123.43413416 -177.51780613 106.16886211 -173.41015625 88.59765625 C-173.11839705 87.24481162 -172.8267236 85.89194849 -172.53515625 84.5390625 C-165.39444474 54.41418583 -145.75646993 25.95604227 -119.55712891 9.42871094 C-90.6198631 -8.21187748 -29.61512574 -25.48278261 0 0 Z " fill="#6B704D" transform="translate(428.41015625,976.40234375)"/>
<path d="M0 0 C1.06283203 -0.00322266 2.12566406 -0.00644531 3.22070312 -0.00976562 C15.73346679 0.07514517 28.12900515 2.47278928 37.4921875 11.32421875 C45.361701 19.91988907 47.82185207 28.02752201 47.625 39.6171875 C46.36537656 54.51223467 38.87323456 66.275047 27.87939453 76.00292969 C13.58210792 87.95223561 -4.16319422 94.00799837 -21.625 99.6875 C-22.28885712 99.90477753 -22.95271423 100.12205505 -23.63668823 100.34591675 C-31.56840998 102.92550092 -39.419675 105.10142013 -47.6875 106.3125 C-44.67180079 119.65543005 -44.67180079 119.65543005 -35.6875 129.3125 C-29.71370145 132.46274533 -24.69640423 132.7886576 -18 132.6875 C-17.01539795 132.67517334 -16.0307959 132.66284668 -15.01635742 132.65014648 C1.7265762 132.2640585 16.81481471 125.57970377 30.60083008 116.23144531 C32.3125 115.3125 32.3125 115.3125 35.25 115.4375 C37.3125 116.3125 37.3125 116.3125 38.3125 117.3125 C38.93808517 126.81357477 34.37106753 133.41024775 28.52734375 140.46875 C14.0846781 155.92332216 -7.04764955 165.81283755 -28.078125 166.55078125 C-48.47275761 166.93431437 -48.47275761 166.93431437 -57.6875 162.3125 C-58.55117187 161.9 -59.41484375 161.4875 -60.3046875 161.0625 C-73.08738462 154.22433984 -79.645855 142.9629501 -83.94140625 129.51171875 C-92.06320033 101.48503995 -85.38889013 70.19513496 -71.67529297 45.09326172 C-62.3390348 28.2621527 -49.85149477 15.78707609 -32.6875 6.9375 C-31.76384644 6.45458496 -31.76384644 6.45458496 -30.8215332 5.96191406 C-20.93362778 1.11854456 -10.90035397 -0.16708084 0 0 Z " fill="#6B714D" transform="translate(1701.6875,1033.6875)"/>
<path d="M0 0 C4.41632177 -0.14509751 8.83203193 -0.23400818 13.25 -0.3125 C14.50425781 -0.35439453 15.75851562 -0.39628906 17.05078125 -0.43945312 C18.85869141 -0.46362305 18.85869141 -0.46362305 20.703125 -0.48828125 C22.36843262 -0.52755737 22.36843262 -0.52755737 24.06738281 -0.56762695 C27 0 27 0 29.33105469 2.28051758 C33.11630474 8.44843746 32.41785072 15.50920406 32.5 22.5625 C32.5121756 23.60321152 32.5121756 23.60321152 32.52459717 24.66494751 C32.65576071 48.36060762 28.2692267 71.89662146 24.65188599 95.24713135 C23.52565466 102.52945856 22.65630514 109.62553535 22.6875 117 C22.67138672 117.79277344 22.65527344 118.58554688 22.63867188 119.40234375 C22.63454513 124.36268621 23.35881767 127.65145706 26 132 C33.59259647 132.12246123 36.91879238 130.00936114 42.34765625 124.8125 C48.72029246 118.05506543 54.54820806 111.25035952 59.6875 103.5 C60.27982422 102.60708252 60.87214844 101.71416504 61.48242188 100.79418945 C75.64909763 78.97142448 91.23797465 51.92907197 89 25 C88.3747292 22.65523449 87.7136591 20.31939207 87 18 C86.46906672 14.85818861 86.27733013 12.1198187 87 9 C93.92090273 1.58474707 105.77144015 -0.17276138 115.5 -0.6875 C119.05980582 -0.59161297 121.2126053 -0.53152676 124.17578125 1.46875 C130.78412905 8.9129986 129.42720829 18.66599041 129 28 C128.34755418 36.91888407 127.27775724 45.80045602 126.26171875 54.68359375 C125.97670192 57.23543681 125.69244016 59.78736431 125.40888977 62.33937073 C124.81554964 67.66095512 124.21595241 72.98177244 123.6105957 78.30200195 C122.91710269 84.39724267 122.23346866 90.49352262 121.55561608 96.59052128 C120.89575659 102.52514952 120.23069215 108.45917818 119.56299782 114.39293098 C119.28260538 116.88630507 119.00315845 119.3797857 118.72473717 121.87338066 C117.1453925 135.97791965 115.37756108 150.00620479 113 164 C108.75014052 164.13910329 104.50143228 164.23401892 100.25 164.3125 C99.0434375 164.35439453 97.836875 164.39628906 96.59375 164.43945312 C95.43359375 164.45556641 94.2734375 164.47167969 93.078125 164.48828125 C92.00981445 164.51446533 90.94150391 164.54064941 89.84082031 164.56762695 C87 164 87 164 84.68554688 161.60595703 C78.31264163 151.75306153 78.89461779 139.72112615 81.13330078 128.61181641 C83.33571218 118.59270359 86.32616973 108.78548824 89.39916992 99.00439453 C89.9954586 97.01515031 90.51251868 95.01839333 91 93 C90.71390869 93.56807373 90.42781738 94.13614746 90.13305664 94.72143555 C81.70997669 111.35739682 72.47166216 126.09900128 60 140 C59.26007813 140.825 58.52015625 141.65 57.7578125 142.5 C48.76723758 151.98456255 38.30931515 158.65245465 26 163 C25.07832031 163.36480469 24.15664063 163.72960938 23.20703125 164.10546875 C19.1156246 165.24667718 15.35237789 165.36794261 11.125 165.375 C10.36058594 165.39949219 9.59617187 165.42398437 8.80859375 165.44921875 C1.98227521 165.48398777 -3.09707575 163.54385173 -8.2421875 159.03515625 C-9.05042969 158.05869141 -9.05042969 158.05869141 -9.875 157.0625 C-10.42929687 156.41410156 -10.98359375 155.76570313 -11.5546875 155.09765625 C-16.10862623 148.48829112 -15.48128843 141.22276681 -15.5 133.5 C-15.50334351 132.76969574 -15.50668701 132.03939148 -15.51013184 131.28695679 C-15.51529493 112.04641389 -12.58106469 93.17779103 -9.76074219 74.1875 C-8.7085596 67.07376697 -7.7830222 59.94595972 -6.875 52.8125 C-6.72023193 51.61496094 -6.56546387 50.41742187 -6.40600586 49.18359375 C-5.53002983 42.35622831 -4.70063564 35.52429981 -3.90234375 28.6875 C-3.76502838 27.51195808 -3.76502838 27.51195808 -3.62493896 26.31266785 C-3.18021857 22.49587951 -2.73992367 18.67864388 -2.30615234 14.8605957 C-2.14811593 13.48649043 -1.99007577 12.11238559 -1.83203125 10.73828125 C-1.69514893 9.53212158 -1.5582666 8.32596191 -1.41723633 7.08325195 C-1.08680554 4.64146707 -0.67109272 2.36509897 0 0 Z " fill="#6B704D" transform="translate(544,1034)"/>
<path d="M0 0 C2.79636762 2.79636762 2.29976679 4.59514984 2.3125 8.5 C2.13616878 19.27824585 -0.76014234 27.21164709 -7.30859375 35.6953125 C-11.98854989 39.30525558 -20.43602881 37.31836357 -26.00830078 36.62646484 C-33.69391371 35.55109746 -41.34804752 34.29049397 -49 33 C-51.26817605 32.62207688 -53.53640292 32.24445865 -55.8046875 31.8671875 C-57.53647582 31.57822977 -59.26825351 31.28920828 -61 31 C-61.03955811 31.69448242 -61.07911621 32.38896484 -61.11987305 33.10449219 C-61.95745723 46.1896186 -63.4270457 59.21401013 -64.8125 72.25 C-64.94694519 73.52276794 -65.08139038 74.79553589 -65.21990967 76.10687256 C-66.91023866 92.105051 -68.67033494 108.09061343 -70.60083008 124.06152344 C-71.95484713 135.35274412 -73.11212439 146.6597287 -74.24853516 157.97457886 C-75.57296738 171.1393894 -77.05211745 184.27957518 -78.6340332 197.41577148 C-79.67854947 206.11132576 -80.63771027 214.80910507 -81.40478516 223.53393555 C-81.89647598 228.89647598 -81.89647598 228.89647598 -83 230 C-87.57552409 230.3388324 -92.16355078 230.32514729 -96.75 230.375 C-98.68359375 230.43107422 -98.68359375 230.43107422 -100.65625 230.48828125 C-101.89890625 230.49988281 -103.1415625 230.51148438 -104.421875 230.5234375 C-105.56237305 230.54325684 -106.70287109 230.56307617 -107.87792969 230.58349609 C-111.95388289 229.82172505 -113.40032377 228.15022355 -116 225 C-124.21569958 207.69936301 -118.03799558 182.58455372 -115.75 164.625 C-115.09783346 159.35998909 -114.45373858 154.094001 -113.80859375 148.828125 C-113.64965134 147.54082489 -113.49070892 146.25352478 -113.32695007 144.92721558 C-112.03429599 134.42121425 -110.88052953 123.90590379 -109.8125 113.375 C-108.49639923 100.48206442 -107.02723969 87.61616107 -105.43554688 74.75439453 C-104.18529816 64.63161385 -103.03224787 54.50085592 -101.95092773 44.35864258 C-101.83950439 43.32763428 -101.72808105 42.29662598 -101.61328125 41.234375 C-101.47079956 39.89197754 -101.47079956 39.89197754 -101.32543945 38.52246094 C-100.99783149 35.98319199 -100.53197134 33.50372552 -100 31 C-100.88123535 31.24524414 -101.7624707 31.49048828 -102.67041016 31.74316406 C-111.77908241 34.23091151 -120.91565662 36.38867864 -130.16357422 38.29248047 C-132.39633054 38.75441305 -134.62578237 39.23052766 -136.85546875 39.70703125 C-151.23484882 42.72432025 -151.23484882 42.72432025 -158 42 C-160.38870146 40.09438744 -160.93502042 39.40158549 -161.43359375 36.3203125 C-161.44797507 24.55638973 -159.22459149 13.6124893 -151.00416565 4.87979126 C-146.65717879 2.15975886 -142.90363575 2.44287345 -137.87084961 2.48583984 C-136.85195648 2.47871475 -135.83306335 2.47158966 -134.78329468 2.46424866 C-131.40611523 2.4449224 -128.02956056 2.45326707 -124.65234375 2.4609375 C-122.28275144 2.45101922 -119.91316683 2.4390737 -117.54359436 2.42520142 C-111.28252933 2.39276928 -105.02163877 2.38244723 -98.76049805 2.37835693 C-87.64103272 2.36859305 -76.52167881 2.32610855 -65.40234375 2.2734375 C-63.62593569 2.26612232 -63.62593569 2.26612232 -61.81364059 2.25865936 C-46.55183508 2.18746771 -31.43450593 1.85811174 -16.23266602 0.42431641 C-5.34829858 -0.55622512 -5.34829858 -0.55622512 0 0 Z " fill="#6B714D" transform="translate(1275,968)"/>
<path d="M0 0 C2.05171639 1.54855737 2.89843057 2.44191421 3.36328125 4.99609375 C3.19047131 13.30426407 2.39435164 21.55466842 1.53515625 29.81640625 C1.456604 30.57381104 1.37805176 31.33121582 1.29711914 32.11157227 C1 34 1 34 0 36 C1.23153809 35.99476318 2.46307617 35.98952637 3.73193359 35.98413086 C8.29035722 35.96606447 12.84877767 35.95456196 17.40722656 35.94506836 C19.38216687 35.9400319 21.35710343 35.93320249 23.33203125 35.92456055 C26.16667605 35.91246492 29.00127166 35.9067649 31.8359375 35.90234375 C32.72243988 35.89718246 33.60894226 35.89202118 34.52230835 35.88670349 C40.77225659 35.88612829 40.77225659 35.88612829 43 37 C43.31934688 41.85552416 42.45909844 44.87319636 40.25 49.1875 C39.73953125 50.21230469 39.2290625 51.23710938 38.703125 52.29296875 C36.31658801 56.08624888 34.21814391 57.59395203 30 59 C27.41369776 59.08481773 24.85521944 59.11598229 22.26953125 59.09765625 C21.51911057 59.0962413 20.76868988 59.09482635 19.99552917 59.09336853 C17.6011454 59.0877756 15.20685547 59.07522444 12.8125 59.0625 C11.18815239 59.05748408 9.56380332 59.05292134 7.93945312 59.04882812 C3.95959931 59.03780848 -0.02018444 59.02054873 -4 59 C-4.10489746 60.11181641 -4.10489746 60.11181641 -4.21191406 61.24609375 C-5.62058082 76.04841841 -7.17146695 90.81394868 -9.0625 105.5625 C-14.86078854 134.47053353 -14.86078854 134.47053353 -10 162 C-5.116299 165.69490536 2.25462029 164.61578992 8 164 C11.28921594 162.91866555 14.28383771 161.6391379 17.37890625 160.09375 C20.1463191 158.93894285 22.03506593 158.78553822 25 159 C26.45404984 164.1996086 25.1967862 166.70881778 22.703125 171.3125 C14.09361422 184.89815004 1.04489058 192.55667863 -14.30859375 196.609375 C-24.15509199 198.03847489 -35.48772059 198.81001953 -44.1875 193.41796875 C-50.1109315 188.78390488 -52.8300893 182.31860426 -54 175 C-54.50278691 165.38767055 -53.59253935 156.06762926 -52.25 146.5625 C-52.06674255 145.21513752 -51.88447441 143.86764016 -51.703125 142.52001953 C-51.32725992 139.73206613 -50.94723059 136.94472711 -50.56445312 134.15771484 C-49.66424908 127.5693513 -48.83900855 120.97138631 -48 114.375 C-46.51726212 102.80493976 -44.95249139 91.24864619 -43.30664062 79.70068359 C-42.33713309 72.81139496 -41.55409767 65.93538318 -41 59 C-41.83144531 59.03480469 -42.66289063 59.06960938 -43.51953125 59.10546875 C-45.14955078 59.14607422 -45.14955078 59.14607422 -46.8125 59.1875 C-47.89144531 59.22230469 -48.97039063 59.25710938 -50.08203125 59.29296875 C-53 59 -53 59 -54.94921875 57.92578125 C-56.6924165 54.73099875 -55.87707756 52.43887493 -55 49 C-53.25 46.04296875 -53.25 46.04296875 -51 43.1875 C-50.59265625 42.66889404 -50.1853125 42.15028809 -49.765625 41.6159668 C-45.72809995 36.53557021 -41.48412783 31.68741615 -37 27 C-36.39091797 26.35836914 -35.78183594 25.71673828 -35.15429688 25.05566406 C-10.27276005 -1.00222049 -10.27276005 -1.00222049 0 0 Z " fill="#6A704C" transform="translate(757,1003)"/>
<path d="M0 0 C4.24473436 3.90962376 6.597184 7.03160355 6.875 12.875 C6.57498285 19.96826269 4.12541433 26.27014278 0.5 32.3125 C-2.38309417 34.85640662 -3.75338366 35.12202734 -7.625 35.1875 C-11.00629232 33.7868104 -14.06239621 31.89408284 -17.1875 30 C-32.42112329 21.19245176 -32.42112329 21.19245176 -49.625 20.1875 C-60.11024018 23.74601164 -66.48482074 32.90714148 -71.265625 42.46875 C-80.5807703 64.10999665 -83.74188269 90.51356821 -76.890625 113.26953125 C-74.62192225 118.50015149 -72.27392475 122.36382106 -67.125 125 C-66.3721875 125.39832031 -65.619375 125.79664063 -64.84375 126.20703125 C-56.46778838 129.90838049 -44.83361269 129.36778205 -36.2890625 126.3671875 C-28.53257515 122.93249662 -21.02740017 118.87648079 -14 114.125 C-10.625 112.1875 -10.625 112.1875 -7.6875 112.3125 C-5.625 113.1875 -5.625 113.1875 -4.625 114.1875 C-4.17077155 123.96328628 -8.76464784 130.83193796 -14.6875 138.1875 C-23.17468138 147.40215407 -33.08443322 153.5461851 -44.625 158.1875 C-45.45 158.5484375 -46.275 158.909375 -47.125 159.28125 C-58.53012011 163.41560604 -75.88146463 163.0873128 -87.0234375 158.51171875 C-100.60998758 151.59604236 -109.31980887 143.01296475 -114.25488281 128.31103516 C-122.85814411 100.22723047 -119.37871588 69.56157158 -106 43.5625 C-94.58156506 22.22991933 -77.83398611 6.20735908 -54.625 -1.8125 C-53.70203125 -2.1321875 -52.7790625 -2.451875 -51.828125 -2.78125 C-37.00791648 -7.01559529 -13.71304562 -8.03288702 0 0 Z " fill="#6B714D" transform="translate(917.625,1038.8125)"/>
<path d="M0 0 C5.15099277 3.89626376 7.16209184 8.96888188 9.015625 15.0078125 C9.2115625 15.62914062 9.4075 16.25046875 9.609375 16.890625 C10.18036248 19.86634824 10.14712506 22.7287853 10.140625 25.7578125 C10.14449219 27.51351562 10.14449219 27.51351562 10.1484375 29.3046875 C9.86015464 42.81678421 8.37295166 56.07520036 6.54150391 69.45214844 C6.14225352 72.37090707 5.75208121 75.29077034 5.36328125 78.2109375 C4.07506599 87.79916236 2.66508624 97.35093108 1.03213501 106.88650513 C-0.00540713 112.99028159 -0.80103645 119.104139 -1.484375 125.2578125 C-2.27782601 132.19562564 -3.12686865 139.11085388 -4.16015625 146.01708984 C-5.75847287 156.82792586 -6.57136168 167.61114477 -7.21289062 178.51782227 C-7.84368112 189.21531409 -8.65590866 199.89143681 -9.546875 210.5703125 C-9.61108643 211.35279358 -9.67529785 212.13527466 -9.74145508 212.94146729 C-9.92498663 215.17347249 -10.11217961 217.40513683 -10.30078125 219.63671875 C-10.40849854 220.91619385 -10.51621582 222.19566895 -10.62719727 223.51391602 C-10.95415431 226.71219508 -11.41477422 229.84474911 -11.984375 233.0078125 C-16.21317911 233.15323217 -20.44133913 233.24192777 -24.671875 233.3203125 C-26.46915039 233.3831543 -26.46915039 233.3831543 -28.30273438 233.44726562 C-37.07080873 233.56938365 -37.07080873 233.56938365 -41.06640625 231.11328125 C-45.6295685 223.72486173 -47.69042394 216.98717864 -47.546875 208.3203125 C-47.53809326 207.3303125 -47.52931152 206.3403125 -47.52026367 205.3203125 C-46.86842485 178.89295906 -42.71275418 152.39594725 -39.421875 126.1953125 C-39.31925354 125.37716064 -39.21663208 124.55900879 -39.11090088 123.71606445 C-38.12888567 115.90098104 -37.13435897 108.08826266 -36.07675171 100.28302002 C-32.73533281 75.483432 -30.64986922 50.68146001 -35.29296875 25.890625 C-36.23919769 20.57677434 -37.04632642 15.35356795 -35.984375 10.0078125 C-31.79349206 4.57099138 -25.38653321 2.99248154 -18.984375 1.0078125 C-18.26765625 0.77964844 -17.5509375 0.55148437 -16.8125 0.31640625 C-11.37526641 -1.23864256 -5.26270806 -2.63135403 0 0 Z " fill="#6B714D" transform="translate(494.984375,966.9921875)"/>
<path d="M0 0 C4.39548491 -0.14536813 8.79035087 -0.23409948 13.1875 -0.3125 C14.43337891 -0.35439453 15.67925781 -0.39628906 16.96289062 -0.43945312 C26.07081953 -0.56154332 26.07081953 -0.56154332 30.23828125 1.95703125 C37.72327532 14.88565737 34.27179372 33.31893892 32.1953125 47.26953125 C30.71329545 57.61246377 29.3739802 67.95433498 28.21875 78.33984375 C28.07619781 79.6209201 27.93364563 80.90199646 27.78677368 82.22189331 C27.35505445 86.12679426 26.92691613 90.0320712 26.5 93.9375 C24.77148461 109.72822884 22.9913753 125.50613021 20.90625 141.25390625 C20.745802 142.47254868 20.585354 143.6911911 20.42004395 144.94676208 C19.46898179 152.00473971 18.34733689 159.00666672 17 166 C12.5838301 166.17411103 8.16853997 166.28079762 3.75 166.375 C2.49574219 166.42527344 1.24148438 166.47554687 -0.05078125 166.52734375 C-9.26967945 166.67524051 -9.26967945 166.67524051 -12.796875 163.4140625 C-19.00576856 145.79531908 -14.54598801 124.43914341 -12.20288086 106.36962891 C-11.96706049 104.54983379 -11.73147043 102.73000881 -11.49609375 100.91015625 C-11.37523911 99.97594849 -11.25438446 99.04174072 -11.12986755 98.07922363 C-9.53377064 85.57508074 -8.25336708 73.03607733 -6.9375 60.5 C-4.80869382 40.30878643 -2.55902551 20.14141444 0 0 Z " fill="#6B714D" transform="translate(1288,1034)"/>
<path d="M0 0 C6.56658462 3.68665583 12.51515962 8.99629335 15.1875 16.26171875 C17.22631165 26.69242476 16.10387352 35.61373197 10.375 44.421875 C5.9067096 50.36267019 -0.45550657 53.19350219 -7.375 55.5 C-16.35060208 56.34247529 -23.61887923 54.66598581 -31.0625 49.5625 C-37.14502933 44.47238335 -40.68597901 38.02937827 -41.87890625 30.1875 C-42.20217034 21.34466291 -40.14254327 13.88767697 -34.875 6.75 C-25.47315932 -3.17023791 -12.27892793 -5.57297976 0 0 Z " fill="#422F28" transform="translate(892.375,595.5)"/>
<path d="M0 0 C5.40724672 5.55338852 5.35937848 11.49968414 5.27734375 18.9375 C4.85729944 23.57573572 3.37315872 27.03481631 1 31 C0.59910156 31.67675781 0.19820312 32.35351562 -0.21484375 33.05078125 C-10.02475054 47.69455516 -28.71516698 53.81753677 -45 58 C-47.33602084 58.42870595 -49.63789623 58.73438191 -52 59 C-51.41899723 38.7811035 -46.78205395 20.01581215 -32.3671875 5.02734375 C-23.78024161 -2.32682278 -10.09604044 -6.80895751 0 0 Z " fill="#EBDFCF" transform="translate(1706,1061)"/>
<path d="M0 0 C1.06118042 0.00749268 1.06118042 0.00749268 2.14379883 0.01513672 C9.13268618 0.24877099 12.88694227 2.22923461 17.671875 7.0625 C22.8306228 12.85884584 22.69965328 19.04439548 22.52734375 26.40234375 C22.09193423 33.15661455 18.98248073 37.78992899 14.15625 42.3671875 C7.81886594 47.4614693 1.94567245 49.00172372 -6.1328125 48.8046875 C-13.4369114 47.99312096 -17.96002073 44.08864169 -22.46484375 38.49609375 C-26.52679589 32.74634986 -26.61429628 26.31479519 -25.875 19.5 C-23.77410178 11.10970393 -18.32737088 6.17896892 -11.109375 1.8359375 C-7.34172681 0.27973499 -4.0172259 -0.03706892 0 0 Z " fill="#6B714D" transform="translate(1313.875,966.5)"/>
<path d="M0 0 C4.43781051 2.65353618 7.61657148 5.717496 9.6875 10.5 C12.098972 21.91817466 7.64995137 31.0946704 1.6875 40.5 C-2.24707986 46.26165258 -6.59729493 50.30279589 -13.3125 52.5 C-17.12230068 53.10956811 -18.85630325 52.70482303 -22.375 51.125 C-27.80631401 46.27148535 -30.5246274 40.10654194 -30.94140625 32.84375 C-30.94532848 30.89571152 -30.92297318 28.94745164 -30.875 27 C-30.88595703 26.03191406 -30.89691406 25.06382812 -30.90820312 24.06640625 C-30.83130204 16.42756505 -29.54077652 9.07526977 -24.27734375 3.24609375 C-23.60832031 2.81425781 -22.93929687 2.38242187 -22.25 1.9375 C-21.57839844 1.48246094 -20.90679688 1.02742188 -20.21484375 0.55859375 C-14.23717929 -2.76778627 -6.22057216 -2.72600363 0 0 Z " fill="#423028" transform="translate(1035.3125,429.5)"/>
<path d="M0 0 C3.66929373 1.2935381 6.27812104 2.79763915 9.1875 5.375 C9.86167969 5.96023438 10.53585937 6.54546875 11.23046875 7.1484375 C14.90873715 10.99722165 15.0869235 13.7676509 15 19 C14.26289795 19.3810791 13.5257959 19.7621582 12.76635742 20.15478516 C10.52944517 21.31133807 8.29263925 22.46809667 6.0559082 23.625 C3.46006903 24.96746245 0.86346508 26.30843084 -1.73364258 27.6484375 C-7.81574966 30.78843407 -13.89343534 33.93544204 -19.94544983 37.13314819 C-22.43073448 38.44616972 -24.91885123 39.75377512 -27.40707397 41.06121826 C-29.17188348 41.99176573 -30.93228169 42.93066366 -32.69262695 43.86962891 C-33.75698975 44.42827637 -34.82135254 44.98692383 -35.91796875 45.5625 C-36.85406982 46.05878906 -37.7901709 46.55507813 -38.75463867 47.06640625 C-39.49560791 47.37449219 -40.23657715 47.68257812 -41 48 C-41.66 47.67 -42.32 47.34 -43 47 C-38.21611296 41.45158175 -33.29293579 36.06323567 -28.25 30.75 C-18.68655181 20.63029354 -9.29187066 10.37018652 0 0 Z " fill="#44322A" transform="translate(937,525)"/>
<path d="M0 0 C1.13665504 3.40996511 0.91583208 3.86305848 -0.43359375 7.01171875 C-0.75263672 7.76904297 -1.07167969 8.52636719 -1.40039062 9.30664062 C-1.74263672 10.09232422 -2.08488281 10.87800781 -2.4375 11.6875 C-2.77587891 12.48478516 -3.11425781 13.28207031 -3.46289062 14.10351562 C-4.3000701 16.07265607 -5.1489353 18.03682084 -6 20 C-7.38020217 15.85939348 -5.98186696 12.86684175 -4.6875 8.875 C-4.46126953 8.13378906 -4.23503906 7.39257812 -4.00195312 6.62890625 C-3.39986117 4.7306682 -2.70608329 2.86206037 -2 1 C-1.34 0.67 -0.68 0.34 0 0 Z " fill="#D0C8B3" transform="translate(1487,1104)"/>
<path d="M0 0 C1.12642186 3.37926557 0.96344705 3.72928278 -0.43359375 6.79296875 C-0.75263672 7.50517578 -1.07167969 8.21738281 -1.40039062 8.95117188 C-1.74263672 9.68916016 -2.08488281 10.42714844 -2.4375 11.1875 C-2.77587891 11.93708984 -3.11425781 12.68667969 -3.46289062 13.45898438 C-4.2999411 15.30992698 -5.14885404 17.15549666 -6 19 C-7.34733513 14.9579946 -6.02580484 12.23396029 -4.6875 8.375 C-4.46126953 7.68148438 -4.23503906 6.98796875 -4.00195312 6.2734375 C-2.25880916 1.12940458 -2.25880916 1.12940458 0 0 Z " fill="#D5CCB9" transform="translate(1389,1103)"/>
<path d="M0 0 C1.28497537 3.85492611 0.4052209 5.40346836 -0.9375 9.1875 C-1.31777344 10.27417969 -1.69804688 11.36085938 -2.08984375 12.48046875 C-2.39019531 13.31191406 -2.69054687 14.14335938 -3 15 C-3.99 15 -4.98 15 -6 15 C-4.40109514 9.80355921 -2.25861997 4.93387858 0 0 Z " fill="#CDC5B0" transform="translate(636,1122)"/>
</svg>
